<svg width="1200" height="900" viewBox="0 0 1200 900" fill="none" xmlns="http://www.w3.org/2000/svg">
  <rect width="1200" height="900" fill="#FFF6F5"/>
  <circle cx="220" cy="170" r="180" fill="#DA0508" fill-opacity="0.17"/>
  <circle cx="980" cy="730" r="240" fill="#100202" fill-opacity="0.08"/>
  <rect x="130" y="180" width="940" height="560" rx="40" fill="#FFFFFF" stroke="#100202" stroke-opacity="0.08" stroke-width="2"/>
  <rect x="200" y="255" width="470" height="410" rx="28" fill="#FFF1EF"/>
  <path d="M350 520C310 500 294 448 320 404C346 360 400 336 454 346C508 356 554 394 572 444C592 502 578 566 536 606C500 640 448 656 402 644C380 638 364 626 350 520Z" fill="#DA0508"/>
  <circle cx="414" cy="414" r="24" fill="#100202"/>
  <path d="M390 500C430 484 474 494 504 526" stroke="#FFFFFF" stroke-width="10" stroke-linecap="round"/>
  <rect x="730" y="282" width="258" height="26" rx="13" fill="#100202" fill-opacity="0.75"/>
  <rect x="730" y="336" width="206" height="18" rx="9" fill="#100202" fill-opacity="0.24"/>
  <rect x="730" y="374" width="236" height="18" rx="9" fill="#100202" fill-opacity="0.24"/>
  <rect x="730" y="432" width="258" height="26" rx="13" fill="#100202" fill-opacity="0.75"/>
  <rect x="730" y="486" width="196" height="18" rx="9" fill="#100202" fill-opacity="0.24"/>
  <rect x="730" y="524" width="230" height="18" rx="9" fill="#100202" fill-opacity="0.24"/>
  <rect x="730" y="584" width="258" height="38" rx="19" fill="#DA0508"/>
</svg>
